# xmcd
#
# Track frame offsets:
#	180
#	18458
#	31244
#	48301
#	66612
#	82808
#	98404
#	113059
#	129172
#	144136
#	159171
#	173638
#	187298
#	205393
#	220236
#	230067
#	244290
#	259474
#	277926
#	287769
#
# Disc length: 4016 seconds
#
# Revision: 1
# Processed by: cddbd v1.4PL0 Copyright (c) Steve Scherf et al.
# Submitted via: audiograbber 1.82.02
#
DISCID=1c0fae14
DTITLE=Pier Béland - 20 Grands Succès
DYEAR=2001
DGENRE=Country
TTITLE0=Santa romantica
TTITLE1=L'enfant de l'adultere
TTITLE2=Je suis la femme
TTITLE3=Lucky star
TTITLE4=A cause de lui
TTITLE5=Du sable sur la peau
TTITLE6=Je t'aime avec ma peau
TTITLE7=La jaconde
TTITLE8=Une vague bleue
TTITLE9=Emmene-moi danser ce soir
TTITLE10=Sentimentale
TTITLE11=Je me sens très seule
TTITLE12=L'amour interdit
TTITLE13=Adios amor
TTITLE14=Que Dieu protège notre amour
TTITLE15=Je voudrais qu'il soit malheureux
TTITLE16=Il est parti
TTITLE17=Quand j'aime une fois j'aime pour toujours
TTITLE18=Chacun garde dans son coeur
TTITLE19=Théo et Antoinette
EXTD=
EXTT0=
EXTT1=
EXTT2=
EXTT3=
EXTT4=
EXTT5=
EXTT6=
EXTT7=
EXTT8=
EXTT9=
EXTT10=
EXTT11=
EXTT12=
EXTT13=
EXTT14=
EXTT15=
EXTT16=
EXTT17=
EXTT18=
EXTT19=
PLAYORDER=
